<svg xmlns="http://www.w3.org/2000/svg" viewBox="0 0 380 100" role="img" aria-label="Akriti">
  <title>Akriti</title>
  <g>
    <path d="M 61.62 62.40 L 62.39 62.00 L 63.15 61.59 L 63.89 61.17 L 64.63 60.73 L 65.37 60.28 L 66.09 59.81 L 66.80 59.33 L 67.50 58.84 L 68.19 58.34 L 68.87 57.83 L 69.54 57.30 L 70.20 56.77 L 70.85 56.22 L 71.48 55.67 L 72.10 55.10 L 72.71 54.52 L 73.30 53.94 L 73.88 53.34 L 74.45 52.74 L 75.00 52.13 L 75.53 51.51 L 76.06 50.89 L 76.56 50.26 L 77.05 49.62 L 77.53 48.97 L 77.99 48.33 L 78.43 47.67 L 78.86 47.01 L 79.27 46.35 L 79.66 45.68 L 80.04 45.01 L 80.40 44.33 L 80.74 43.66 L 81.06 42.98 L 81.37 42.30 L 81.66 41.62 L 81.93 40.94 L 82.18 40.26 L 82.42 39.58 L 82.64 38.90 L 82.84 38.22 L 83.02 37.54 L 83.18 36.87 L 83.32 36.19 L 83.45 35.52 L 83.56 34.86 L 83.65 34.20 L 83.72 33.54 L 83.77 32.89 L 83.81 32.24 L 83.83 31.60 L 83.82 30.97 L 83.81 30.34 L 83.77 29.72 L 83.72 29.11 L 83.64 28.51 L 83.55 27.91 L 83.45 27.33 L 83.32 26.75 L 83.18 26.19 L 83.03 25.63 L 82.85 25.09 L 82.66 24.55 L 82.45 24.03 L 82.23 23.52 L 81.99 23.02 L 81.74 22.53 L 81.47 22.06 L 81.19 21.60 L 80.89 21.16 L 80.58 20.73 L 80.25 20.31 L 79.91 19.91 L 79.55 19.52 L 79.19 19.15 L 78.81 18.79 L 78.41 18.45 L 78.01 18.13 L 77.59 17.82 L 77.16 17.53 L 76.72 17.26 L 76.27 17.01 L 75.81 16.77 L 75.34 16.55 L 74.86 16.34 L 74.38 16.16 L 73.88 15.99 L 73.37 15.84 L 72.86 15.72 L 72.34 15.61 L 71.81 15.51 L 71.27 15.44 L 70.73 15.39 L 70.19 15.35 L 69.63 15.34 L 69.08 15.34 L 68.52 15.37 L 67.95 15.41 L 67.38 15.47 L 66.81 15.55 L 66.24 15.66 L 65.66 15.78 L 65.08 15.92 L 64.50 16.08 L 63.92 16.26 L 63.34 16.46 L 62.76 16.68 L 62.18 16.91 L 61.60 17.17 L 61.02 17.45 L 60.45 17.74 L 59.87 18.05 L 59.30 18.39 L 58.73 18.74 L 58.17 19.11 L 57.61 19.49 L 57.06 19.90 L 56.51 20.32 L 55.96 20.76 L 55.42 21.22 L 54.89 21.70 L 54.36 22.19 L 53.84 22.70 L 53.33 23.22 L 52.83 23.76 L 52.33 24.32 L 51.84 24.89 L 51.36 25.48 L 50.90 26.08 L 50.44 26.70 L 49.99 27.33 L 49.55 27.97 L 49.12 28.63 L 48.70 29.30 L 48.29 29.99 L 47.90 30.68 L 47.51 31.39 L 47.14 32.11 L 46.78 32.84 L 46.44 33.59 L 46.10 34.34 L 45.78 35.10 L 45.48 35.87 L 45.18 36.65 L 44.91 37.44 L 44.64 38.24 L 44.39 39.04 L 44.15 39.85 L 43.93 40.67 L 43.72 41.50 L 43.53 42.33 L 43.36 43.16 L 43.19 44.00 L 43.05 44.85 L 42.92 45.70 L 42.80 46.55 L 42.70 47.40 L 42.62 48.26 L 42.55 49.12 L 42.49 49.98 L 42.46 50.84 L 42.44 51.70 L 42.43 52.56 L 42.44 53.42 L 42.47 54.28 L 42.51 55.14 L 42.56 56.00 L 42.64 56.85 L 42.73 57.70 L 42.83 58.54 L 42.95 59.39 L 43.09 60.22 L 43.24 61.06 L 43.40 61.88 L 43.58 62.70 L 43.78 63.52 L 43.99 64.32 L 44.21 65.12 L 44.45 65.91 L 44.70 66.70 L 44.97 67.47 L 45.25 68.23 L 45.54 68.99 L 45.85 69.73 L 46.17 70.47 L 46.50 71.19 L 46.85 71.90 L 47.21 72.60 L 47.58 73.29 L 47.96 73.96 L 48.35 74.62 L 48.76 75.27 L 49.17 75.91 L 49.59 76.53 L 50.03 77.13 L 50.47 77.72 L 50.93 78.30 L 51.39 78.86 L 51.86 79.40 L 52.35 79.93 L 52.83 80.44 L 53.33 80.94 L 53.83 81.42 L 54.34 81.88 L 54.86 82.32 L 55.38 82.75 L 55.91 83.16 L 56.44 83.55 L 56.98 83.92 L 57.52 84.27 L 58.07 84.61 L 58.62 84.92 L 59.17 85.22 L 59.72 85.50 L 60.28 85.76 L 60.84 86.00 L 61.40 86.22 L 61.96 86.42 L 62.52 86.60 L 63.08 86.76 L 63.64 86.90 L 64.20 87.02 L 64.76 87.12 L 65.31 87.21 L 65.87 87.27 L 66.42 87.31 L 66.96 87.33 L 67.51 87.34 L 68.05 87.32 L 68.58 87.29 L 69.11 87.23 L 69.63 87.16 L 70.15 87.06 L 70.67 86.95 L 71.17 86.81 L 71.67 86.66 L 72.16 86.49 L 72.64 86.30 L 73.12 86.10 L 73.58 85.87 L 74.04 85.63 L 74.48 85.37 L 74.92 85.09 L 75.35 84.79 L 75.76 84.48 L 76.17 84.14 L 76.56 83.80 L 76.94 83.43 L 77.31 83.05 L 77.67 82.66 L 78.01 82.24 L 78.34 81.82 L 78.66 81.38 L 78.96 80.92 L 79.25 80.45 L 79.52 79.97 L 79.78 79.47 L 80.03 78.96 L 80.26 78.43 L 80.47 77.90 L 80.67 77.35 L 80.86 76.79 L 81.02 76.22 L 81.17 75.63 L 81.31 75.04 L 81.43 74.44 L 81.53 73.83 L 81.61 73.21 L 81.68 72.58 L 81.73 71.94 L 81.76 71.29 L 81.78 70.64 L 81.77 69.98 L 81.75 69.31 L 81.72 68.64 L 81.66 67.96 L 81.59 67.28 L 81.50 66.59 L 81.39 65.89 L 81.26 65.20 L 81.11 64.50 L 80.95 63.80 L 80.77 63.09 L 80.57 62.39 L 80.36 61.68 L 80.12 60.97 L 79.87 60.26 L 79.60 59.56 L 79.31 58.85 L 79.01 58.14 L 78.69 57.44 L 78.35 56.73 L 77.99 56.03 L 77.62 55.34 L 77.23 54.64 L 76.83 53.95 L 76.40 53.26 L 75.97 52.58 L 75.51 51.91 L 75.04 51.24 L 74.56 50.57 L 74.06 49.91 L 73.54 49.26 L 73.02 48.62 L 72.47 47.98 L 71.91 47.35 L 71.34 46.73 L 70.76 46.12 L 70.16 45.52 L 69.55 44.93 L 68.93 44.35 L 68.29 43.78 L 67.64 43.22 L 66.99 42.67 L 66.32 42.13 L 65.64 41.60 L 64.95 41.09 L 64.25 40.59 L 63.54 40.10 L 62.82 39.62 L 62.09 39.16 L 61.36 38.71 L 60.61 38.28 L 59.86 37.86 L 59.10 37.45 L 58.34 37.06 L 57.57 36.68 L 56.80 36.31 L 56.02 35.97 L 55.23 35.63 L 54.44 35.32 L 53.65 35.01 L 52.85 34.73 L 52.06 34.46 L 51.26 34.20 L 50.45 33.97 L 49.65 33.74 L 48.85 33.54 L 48.04 33.35 L 47.24 33.18 L 46.43 33.02 L 45.63 32.88 L 44.83 32.76 L 44.03 32.65 L 43.24 32.56 L 42.44 32.49 L 41.66 32.43 L 40.87 32.40 L 40.09 32.37 L 39.32 32.36 L 38.55 32.37 L 37.78 32.40 L 37.03 32.44 L 36.28 32.50 L 35.54 32.57 L 34.80 32.66 L 34.08 32.77 L 33.36 32.89 L 32.65 33.03 L 31.95 33.18 L 31.27 33.35 L 30.59 33.53 L 29.92 33.72 L 29.27 33.94 L 28.63 34.16 L 28.00 34.40 L 27.38 34.65 L 26.78 34.92 L 26.18 35.20 L 25.61 35.49 L 25.04 35.80 L 24.50 36.11 L 23.96 36.44 L 23.44 36.79 L 22.94 37.14 L 22.46 37.50 L 21.99 37.88 L 21.53 38.26 L 21.09 38.66 L 20.67 39.06 L 20.27 39.48 L 19.89 39.90 L 19.52 40.33 L 19.17 40.77 L 18.84 41.22 L 18.53 41.67 L 18.23 42.14 L 17.96 42.61 L 17.70 43.08 L 17.47 43.56 L 17.25 44.05 L 17.05 44.54 L 16.87 45.04 L 16.72 45.54 L 16.58 46.04 L 16.46 46.55 L 16.36 47.06 L 16.29 47.57 L 16.23 48.09 L 16.19 48.60 L 16.17 49.12 L 16.18 49.64 L 16.20 50.15 L 16.25 50.67 L 16.31 51.19 L 16.39 51.70 L 16.50 52.22 L 16.62 52.73 L 16.77 53.24 L 16.93 53.75 L 17.12 54.25 L 17.32 54.75 L 17.55 55.24 L 17.79 55.73 L 18.05 56.22 L 18.34 56.70 L 18.64 57.17 L 18.96 57.64 L 19.30 58.10 L 19.65 58.56 L 20.03 59.00 L 20.42 59.44 L 20.83 59.87 L 21.26 60.29 L 21.71 60.71 L 22.17 61.11 L 22.65 61.50 L 23.15 61.89 L 23.66 62.26 L 24.19 62.62 L 24.73 62.97 L 25.29 63.31 L 25.86 63.64 L 26.45 63.96 L 27.05 64.26 L 27.66 64.55 L 28.29 64.83 L 28.93 65.10 L 29.59 65.35 L 30.26 65.59 L 30.93 65.81 L 31.62 66.02 L 32.32 66.22 L 33.03 66.40 L 33.75 66.56 L 34.48 66.71 L 35.22 66.85 L 35.97 66.97 L 36.73 67.08 L 37.49 67.17 L 38.26 67.24 L 39.04 67.30 L 39.83 67.34 L 40.62 67.37 L 41.41 67.38 L 42.21 67.37 L 43.02 67.35 L 43.83 67.31 L 44.64 67.26 L 45.45 67.18 L 46.27 67.10 L 47.09 66.99 L 47.91 66.87 L 48.74 66.74 L 49.56 66.58 L 50.38 66.42 L 51.20 66.23 L 52.02 66.03 L 52.84 65.81 L 53.66 65.58 L 54.48 65.33 L 55.29 65.07 L 56.10 64.79 L 56.90 64.49 L 57.70 64.18 L 58.50 63.85 L 59.29 63.51 L 60.07 63.16 L 60.85 62.79 Z" fill="none" stroke="#7B8FFF" stroke-width="6" stroke-linejoin="round" stroke-linecap="round"/>
    <path d="M 80.22 61.27 L 80.01 60.66 L 79.79 60.05 L 79.55 59.44 L 79.31 58.83 L 79.05 58.23 L 78.77 57.62 L 78.49 57.02 L 78.19 56.41 L 77.88 55.81 L 77.55 55.21 L 77.22 54.62 L 76.87 54.02 L 76.51 53.43 L 76.14 52.85 L 75.75 52.26 L 75.36 51.68 L 74.95 51.11 L 74.53 50.54 L 74.10 49.97 L 73.66 49.41 L 73.21 48.86 L 72.75 48.31 L 72.28 47.76 L 71.80 47.22 L 71.30 46.69 L 70.80 46.17 L 70.29 45.65 L 69.77 45.14 L 69.24 44.64 L 68.70 44.14 L 68.15 43.65 L 67.59 43.17" fill="none" stroke="#0a0a0f" stroke-width="11" stroke-linecap="butt"/>
    <path d="M 57.64 36.71 L 56.97 36.39 L 56.30 36.09 L 55.63 35.80 L 54.95 35.52 L 54.27 35.25 L 53.59 34.99 L 52.91 34.75 L 52.22 34.51 L 51.54 34.29 L 50.85 34.08 L 50.16 33.88 L 49.47 33.70 L 48.77 33.52 L 48.08 33.36 L 47.39 33.21 L 46.70 33.07 L 46.01 32.95 L 45.32 32.83 L 44.63 32.73 L 43.95 32.64 L 43.27 32.57 L 42.58 32.50 L 41.91 32.45 L 41.23 32.41 L 40.56 32.38 L 39.89 32.37 L 39.22 32.37 L 38.56 32.37 L 37.91 32.39 L 37.25 32.43 L 36.61 32.47 L 35.97 32.53" fill="none" stroke="#0a0a0f" stroke-width="11" stroke-linecap="butt"/>
    <path d="M 34.18 66.65 L 34.81 66.78 L 35.45 66.89 L 36.09 66.99 L 36.74 67.08 L 37.40 67.16 L 38.06 67.22 L 38.73 67.28 L 39.40 67.32 L 40.08 67.35 L 40.76 67.37 L 41.44 67.38 L 42.13 67.37 L 42.82 67.36 L 43.51 67.33 L 44.21 67.29 L 44.91 67.23 L 45.61 67.17 L 46.32 67.09 L 47.02 67.00 L 47.73 66.90 L 48.43 66.79 L 49.14 66.66 L 49.85 66.53 L 50.55 66.38 L 51.26 66.22 L 51.97 66.04 L 52.67 65.86 L 53.37 65.66 L 54.08 65.45 L 54.77 65.24 L 55.47 65.00 L 56.17 64.76" fill="none" stroke="#0a0a0f" stroke-width="11" stroke-linecap="butt"/>
    <circle cx="55.42" cy="21.22" r="6" fill="#FF6B6B"/>
  </g>
  <text x="120" y="64"
        font-family="-apple-system, BlinkMacSystemFont, 'Segoe UI', 'Helvetica Neue', Arial, sans-serif"
        font-weight="700" font-size="48" letter-spacing="3" fill="#7B8FFF">ĀKRITI</text>
</svg>
